# xmcd
#
# Track frame offsets:
#	150
#	11217
#	24054
#	41129
#	53121
#	65278
#	73677
#	82359
#	89676
#	102561
#	114688
#	124658
#	135415
#	148354
#	156194
#	167301
#	177063
#	187840
#	198717
#	209049
#	219133
#	231710
#	243297
#	251522
#	262086
#	270943
#	282493
#
# Disc length: 3897 seconds
#
# Revision: 1
# Processed by: cddbd v1.5.2PL0 Copyright (c) Steve Scherf et al.
# Submitted via: audiograbber 1.83.01
#
DISCID=9a0f371b
DTITLE=Johnny Cash  - Johnny Cash Live
DYEAR=1900
DGENRE=Country
TTITLE0=Rock Island Live
TTITLE1=Peace In The Valley
TTITLE2=Sunday Morning Coming Down
TTITLE3=Highwayman
TTITLE4=Sixteen Tons
TTITLE5=The Wall
TTITLE6=I Got Stripes
TTITLE7=Casey Jones
TTITLE8=I Walk The Line
TTITLE9=You´re The Nearest Thing To Heaven
TTITLE10=Rock Island Line
TTITLE11=Cold, Cold Heart
TTITLE12=Folsom Prison Blues
TTITLE13=Hey Good Looking
TTITLE14=I Love You Because
TTITLE15=It´s Just About Time
TTITLE16=Straight A´s In Love
TTITLE17=I Just Thought You´d Like To Know
TTITLE18=Goodbye Little Darling
TTITLE19=I Could Never Be Ashamed Of You
TTITLE20=Next In Line
TTITLE21=The Port Of Lonely Heart
TTITLE22=Sugartime
TTITLE23=There You Go
TTITLE24=Two Timen´ Woman
TTITLE25=Big River
TTITLE26=Ballad Of The Teanage Queen
EXTD=
EXTT0=
EXTT1=
EXTT2=
EXTT3=
EXTT4=
EXTT5=
EXTT6=
EXTT7=
EXTT8=
EXTT9=
EXTT10=
EXTT11=
EXTT12=
EXTT13=
EXTT14=
EXTT15=
EXTT16=
EXTT17=
EXTT18=
EXTT19=
EXTT20=
EXTT21=
EXTT22=
EXTT23=
EXTT24=
EXTT25=
EXTT26=
PLAYORDER=
